<?xml version="1.0" encoding="utf-8"?>
<!DOCTYPE svg PUBLIC "-//W3C//DTD SVG 1.1//EN" "http://www.w3.org/Graphics/SVG/1.1/DTD/svg11.dtd">
<svg  version="1.1" id="Layer_1" xmlns="http://www.w3.org/2000/svg" xmlns:xlink="http://www.w3.org/1999/xlink" width="200.667" height="306.667"
	 viewBox="0 0 200.667 306.667" overflow="visible" enable-background="new 0 0 200.667 306.667" xml:space="preserve">
<g>
	<circle fill="#FFFFFF" stroke="#000000" cx="31.19" cy="64.084" r="5"/>
	<circle fill="#FFFFFF" stroke="#000000" cx="99.667" cy="14.333" r="5"/>
	<circle fill="#FFFFFF" stroke="#000000" cx="168.143" cy="64.084" r="5"/>
	<circle fill="#FFFFFF" stroke="#000000" cx="141.987" cy="144.583" r="5"/>
	<circle fill="#FFFFFF" stroke="#000000" cx="57.346" cy="144.583" r="5"/>
	<circle fill="#FFFFFF" stroke="#000000" cx="15.026" cy="217.883" r="5"/>
	<circle fill="#FFFFFF" stroke="#000000" cx="57.346" cy="291.184" r="5"/>
	<circle fill="#FFFFFF" stroke="#000000" cx="141.987" cy="291.184" r="5"/>
	<circle fill="#FFFFFF" stroke="#000000" cx="184.307" cy="217.883" r="5"/>
	<g>
		<line fill="none" stroke="#000000" x1="39.385" y1="58.131" x2="87.752" y2="22.99"/>
		<path d="M92.635,19.442c-1.679,2.521-3.472,6.047-4.12,8.871l-1.403-4.858l-4.187-2.836
			C85.811,20.875,89.718,20.259,92.635,19.442z"/>
	</g>
	<g>
		<line fill="none" stroke="#000000" x1="107.076" y1="19.717" x2="156.019" y2="55.276"/>
		<path d="M160.902,58.823c-2.917-0.817-6.824-1.433-9.71-1.177l4.187-2.836l1.403-4.858
			C157.43,52.776,159.223,56.302,160.902,58.823z"/>
	</g>
	<g>
		<line fill="none" stroke="#000000" x1="165.616" y1="71.865" x2="147.312" y2="128.192"/>
		<path d="M145.447,133.932c-0.124-3.026-0.745-6.933-1.881-9.598l3.991,3.105l5.054-0.166
			C150.125,128.762,147.327,131.557,145.447,133.932z"/>
	</g>
	<g>
		<line fill="none" stroke="#000000" x1="133.323" y1="144.583" x2="71.323" y2="144.583"/>
		<path d="M65.288,144.583c2.84-1.054,6.363-2.852,8.547-4.755l-1.72,4.755l1.72,4.755
			C71.651,147.434,68.127,145.636,65.288,144.583z"/>
	</g>
	<g>
		<line fill="none" stroke="#000000" x1="54.113" y1="134.631" x2="35.48" y2="77.287"/>
		<path d="M33.615,71.547c1.88,2.375,4.679,5.17,7.164,6.659l-5.054-0.166l-3.991,3.104C32.87,78.48,33.491,74.574,33.615,71.547z"
			/>
	</g>
	<g>
		<line fill="none" stroke="#000000" x1="52.401" y1="153.148" x2="22.042" y2="205.729"/>
		<path d="M19.024,210.956c0.507-2.986,0.712-6.937,0.156-9.779l3.258,3.867l4.978,0.888
			C24.675,206.871,21.356,209.023,19.024,210.956z"/>
	</g>
	<g>
		<line fill="none" stroke="#000000" x1="19.783" y1="226.123" x2="50.242" y2="278.878"/>
		<path d="M53.26,284.105c-2.333-1.933-5.651-4.085-8.391-5.024l4.978-0.888l3.258-3.867
			C52.547,277.168,52.752,281.119,53.26,284.105z"/>
	</g>
	<g>
		<line fill="none" stroke="#000000" x1="65.99" y1="291.184" x2="126.656" y2="291.184"/>
		<path d="M132.691,291.184c-2.84,1.054-6.363,2.852-8.547,4.755l1.72-4.755l-1.72-4.755
			C126.328,288.333,129.851,290.13,132.691,291.184z"/>
	</g>
	<g>
		<line fill="none" stroke="#000000" x1="146.996" y1="282.507" x2="177.162" y2="230.259"/>
		<path d="M180.179,225.033c-0.508,2.986-0.712,6.937-0.155,9.779l-3.259-3.867l-4.978-0.888
			C174.528,229.118,177.847,226.965,180.179,225.033z"/>
	</g>
	<g>
		<line fill="none" stroke="#000000" x1="179.209" y1="209.111" x2="149.537" y2="157.612"/>
		<path d="M146.523,152.382c2.331,1.936,5.648,4.09,8.388,5.032l-4.979,0.883l-3.262,3.865
			C147.229,159.32,147.029,155.37,146.523,152.382z"/>
	</g>
</g>
<rect fill="none" width="200.667" height="306.667"/>
</svg>
